<svg version="1.2" xmlns="http://www.w3.org/2000/svg" viewBox="0 0 105 40" width="105" height="40">
	<title>logo_placeholder1-svg</title>
	<style>
		.s0 { fill: #ffffff } 
	</style>
	<path id="Layer" class="s0" d="m48.1 35.2h2.8v-10.3h-2.8zm0-11.9h2.8v-2.5h-2.8z"/>
	<path id="Layer" fill-rule="evenodd" class="s0" d="m52.6 24.9h2.7v1.3c0.7-0.9 1.7-1.6 3.1-1.6 2.7 0 4.4 2.3 4.4 5.5 0 3.3-1.8 5.4-4.4 5.4-1.5 0-2.4-0.5-3-1.4v4.5h-2.8zm7.5 5.3c0-2-0.7-3.4-2.4-3.4-1.7 0-2.4 1.5-2.4 3.4 0 1.8 0.9 3.1 2.5 3.1 1.4 0 2.3-1.2 2.3-3.1z"/>
	<path id="Layer" class="s0" d="m68.3 35.5c2.6 0 4.3-1.2 4.3-3.3 0-2.4-1.9-2.9-3.6-3.2-1.5-0.3-2.8-0.4-2.8-1.3 0-0.7 0.7-1.1 1.7-1.1 1.2 0 1.9 0.4 2 1.5h2.5c-0.2-2.1-1.7-3.5-4.4-3.5-2.4 0-4.2 1.1-4.2 3.3 0 2.3 1.8 2.8 3.6 3.2 1.4 0.2 2.8 0.3 2.8 1.3 0 0.7-0.7 1.2-1.9 1.2-1.3 0-2.1-0.5-2.3-1.7h-2.5c0.1 2.2 1.8 3.6 4.8 3.6z"/>
	<path id="Layer" class="s0" d="m83 35.2v-10.3h-2.7v6c0 1.3-0.8 2.3-2.1 2.3-1.1 0-1.7-0.7-1.7-1.9v-6.4h-2.7v6.9c0 2.3 1.3 3.7 3.6 3.7 1.4 0 2.2-0.5 2.9-1.5h0.1v1.2z"/>
	<path id="Layer" class="s0" d="m84.8 35.2h2.7v-6c0-1.3 0.8-2.2 1.9-2.2 1 0 1.6 0.6 1.6 1.8v6.4h2.7v-6c0-1.3 0.7-2.2 1.9-2.2 1 0 1.5 0.6 1.5 1.8v6.4h2.8v-6.9c0-2.3-1.3-3.7-3.4-3.7-1.3 0-2.4 0.7-3.1 1.9h-0.1c-0.5-1.1-1.5-1.9-2.8-1.9-1.4 0-2.4 0.8-3 1.7h-0.1v-1.4h-2.6z"/>
	<path id="Layer" class="s0" d="m48.2 17.6h2.7v-14.4h-2.7z"/>
	<path id="Layer" fill-rule="evenodd" class="s0" d="m52.2 12.4c0-3.1 2.2-5.4 5.4-5.4 3.2 0 5.4 2.3 5.4 5.4 0 3.1-2.2 5.5-5.4 5.5-3.2 0-5.4-2.4-5.4-5.5zm8 0c0-2-0.9-3.4-2.6-3.4-1.7 0-2.6 1.4-2.6 3.4 0 2 0.9 3.4 2.6 3.4 1.7 0 2.6-1.4 2.6-3.4z"/>
	<path id="Layer" fill-rule="evenodd" class="s0" d="m64 17.9h2.7c0.2 0.6 0.8 1.1 2.1 1.1 1.5 0 2.3-0.7 2.3-2.1v-1.2h-0.1c-0.6 0.7-1.4 1.2-2.7 1.2-2.3 0-4.5-1.8-4.5-4.9 0-3.1 1.8-5 4.4-5 1.3 0 2.2 0.5 2.9 1.3v-1h2.6v9.5c0 1.4-0.4 2.4-1.2 3.1-0.8 0.8-2.2 1.2-3.7 1.2-2.8 0-4.5-1.2-4.8-3.2zm7.2-5.9c0-1.5-0.8-2.8-2.5-2.8-1.3 0-2.3 1.1-2.3 2.8 0 1.7 1 2.8 2.4 2.8 1.7 0 2.4-1.3 2.4-2.8z"/>
	<path id="Layer" fill-rule="evenodd" class="s0" d="m75 12.4c0-3.1 2.2-5.4 5.4-5.4 3.2 0 5.4 2.3 5.4 5.4 0 3.1-2.2 5.5-5.4 5.5-3.2 0-5.4-2.4-5.4-5.5zm8 0c0-2-0.9-3.4-2.6-3.4-1.7 0-2.6 1.4-2.6 3.4 0 2 0.9 3.4 2.6 3.4 1.7 0 2.6-1.4 2.6-3.4z"/>
	<path id="Layer" class="s0" d="m88.2 13.6h11.8v-2.3h-11.8z"/>
	<path id="Layer" class="s0" d="m101.9 21.2c0-0.5 0.3-0.9 0.8-0.9h1.7c0.4 0 0.8 0.4 0.8 0.9 0 0.4-0.4 0.8-0.8 0.8h-1.7c-0.5 0-0.8-0.4-0.8-0.8z"/>
	<path id="Layer" fill-rule="evenodd" class="s0" d="m20.5 0c11.1 0 20 9 20 20 0 11-8.9 20-20 20-11 0-20-9-20-20 0-11 9-20 20-20zm-0.7 1.5c-2.3 0.3-4.5 2.2-6.1 5.2q-0.8 1.4-1.4 3c2.3-0.6 4.9-1 7.5-1zm-9.1 8.6q0.7-2.2 1.7-4.1c0.8-1.5 1.8-2.8 2.9-3.8-6 1.7-10.8 6.5-12.6 12.6 1-1.1 2.3-2.1 3.8-2.9q1.9-1.1 4.2-1.8zm-3.5 3c-3 1.7-4.9 3.9-5.2 6.2h7.2c0.1-2.7 0.4-5.2 1-7.5q-1.6 0.6-3 1.3zm6.6 6.2c2.7-1.1 4.9-3.3 6-6.1v-3.1c-2.9 0.1-5.6 0.5-8 1.2-0.7 2.4-1.1 5.1-1.2 8zm-4.5 1.4h-7.2c0.3 2.3 2.2 4.5 5.2 6.1q1.4 0.8 2.9 1.4c-0.5-2.3-0.9-4.8-0.9-7.5zm10.6 9.2v-3.2c-1.1-2.7-3.3-4.9-6.1-6h-3.1c0.1 2.9 0.5 5.6 1.2 8 2.4 0.7 5.1 1.1 8 1.2zm-9.2 0q-2.2-0.8-4.1-1.8c-1.5-0.8-2.8-1.8-3.8-2.9 1.7 6 6.5 10.8 12.6 12.6-1.1-1-2.1-2.3-2.9-3.8q-1-1.9-1.8-4.1zm9.2 1.4c-2.7 0-5.2-0.4-7.5-1q0.6 1.6 1.3 3c1.7 3 3.9 4.9 6.2 5.2zm18.5-6.1c-1 1.1-2.3 2.1-3.8 2.9q-1.9 1-4.1 1.7-0.8 2.3-1.8 4.1c-0.8 1.6-1.8 2.9-2.9 3.9 6.1-1.8 10.9-6.6 12.6-12.6zm-17.1 6.1v7.2c2.3-0.3 4.5-2.2 6.2-5.2q0.7-1.4 1.3-3c-2.3 0.6-4.8 0.9-7.5 1zm9.6-3.2q1.6-0.5 3-1.3c3-1.7 4.9-3.8 5.2-6.1h-7.2c0 2.6-0.4 5.2-1 7.4zm-3.5-7.4c-2.8 1.1-5 3.3-6.1 6v3.1c2.9 0 5.6-0.4 8-1.1 0.7-2.4 1.1-5.1 1.2-8zm4.5-1.5h7.2c-0.3-2.2-2.1-4.4-5.2-6.1q-1.3-0.7-2.9-1.3c0.5 2.3 0.9 4.8 0.9 7.4zm-10.6-9.1v3.1c1.1 2.8 3.3 5 6.1 6h3.1c-0.1-2.8-0.5-5.5-1.2-7.9-2.4-0.7-5.1-1.1-8-1.2zm9.2 0q2.3 0.7 4.1 1.7c1.5 0.9 2.8 1.9 3.8 3-1.7-6.1-6.5-10.9-12.6-12.6 1.1 1 2.1 2.3 3 3.8q1 1.8 1.7 4.1zm-9.2-1.4c2.7 0 5.2 0.3 7.5 0.9q-0.6-1.6-1.3-2.9c-1.7-3.1-3.9-4.9-6.2-5.2z"/>
</svg>