<svg version="1.2" xmlns="http://www.w3.org/2000/svg" viewBox="0 0 218 40" width="218" height="40">
	<title>logo_placeholder2-svg</title>
	<style>
		.s0 { fill: #ffffff } 
	</style>
	<path id="Layer" class="s0" d="m122.4 29.5h4.6v-17.6h-4.6zm0-20.3h4.6v-4.2h-4.6z"/>
	<path id="Layer" fill-rule="evenodd" class="s0" d="m130 11.9h4.5v2.2h0.1c1.1-1.5 2.8-2.6 5.2-2.6 4.7 0 7.6 3.8 7.6 9.2 0 5.7-3 9.3-7.6 9.3-2.4 0-4.1-1-5-2.5h-0.1v7.8h-4.7zm12.7 8.9c0-3.3-1.2-5.6-4-5.6-3 0-4.1 2.5-4.1 5.6 0 3.2 1.5 5.3 4.2 5.3 2.4 0 3.9-1.9 3.9-5.3z"/>
	<path id="Layer" class="s0" d="m156.7 30c4.4 0 7.4-2.1 7.4-5.6 0-4.1-3.2-5-6.2-5.6-2.5-0.5-4.8-0.6-4.8-2.1 0-1.3 1.2-2 3-2 2 0 3.2 0.7 3.4 2.6h4.2c-0.3-3.5-2.9-5.8-7.5-5.8-4 0-7.2 1.8-7.2 5.6 0 3.8 3.1 4.7 6.3 5.3 2.4 0.5 4.6 0.6 4.6 2.3 0 1.3-1.2 2-3.2 2-2.1 0-3.6-0.8-3.9-2.9h-4.3c0.3 3.8 3.1 6.2 8.2 6.2z"/>
	<path id="Layer" class="s0" d="m181.8 29.5v-17.6h-4.6v10.2c0 2.3-1.4 4-3.5 4-2 0-3-1.2-3-3.2v-11h-4.6v11.8c0 3.8 2.2 6.3 6.1 6.3 2.5 0 3.9-0.9 5.1-2.5h0.1v2z"/>
	<path id="Layer" class="s0" d="m184.9 29.5h4.6v-10.2c0-2.3 1.3-3.8 3.2-3.8 1.7 0 2.7 1 2.7 3v11h4.7v-10.2c0-2.3 1.2-3.8 3.1-3.8 1.7 0 2.7 1 2.7 3v11h4.7v-11.8c0-3.8-2.1-6.2-5.8-6.2-2.2 0-4.1 1.1-5.3 3h-0.1c-0.8-1.8-2.6-3-4.8-3-2.5 0-4.2 1.2-5.1 2.8h-0.1v-2.4h-4.5z"/>
	<path id="Layer" class="s0" d="m0.8 29.5h4.7v-24.5h-4.7z"/>
	<path id="Layer" fill-rule="evenodd" class="s0" d="m7.7 20.7c0-5.2 3.7-9.2 9.2-9.2 5.4 0 9.2 4 9.2 9.2 0 5.3-3.8 9.3-9.2 9.3-5.5 0-9.2-4-9.2-9.3zm13.6 0c0-3.4-1.6-5.7-4.4-5.7-2.9 0-4.5 2.3-4.5 5.7 0 3.5 1.6 5.8 4.5 5.8 2.8 0 4.4-2.3 4.4-5.8z"/>
	<path id="Layer" fill-rule="evenodd" class="s0" d="m27.8 30h4.6c0.4 1.1 1.4 2 3.5 2 2.7 0 3.9-1.3 3.9-3.7v-1.9h-0.1c-1 1.2-2.3 2.1-4.6 2.1-3.9 0-7.7-3.1-7.7-8.4 0-5.3 3.1-8.6 7.6-8.6 2.2 0 3.8 0.8 4.9 2.3v-1.9h4.5v16.3c0 2.5-0.8 4.1-2.1 5.3-1.4 1.4-3.7 2-6.3 2-4.8 0-7.8-2-8.2-5.5zm12.3-10c0-2.6-1.4-4.8-4.2-4.8-2.4 0-4 1.8-4 4.8 0 3 1.6 4.7 4 4.7 3 0 4.2-2.1 4.2-4.7z"/>
	<path id="Layer" fill-rule="evenodd" class="s0" d="m46.6 20.7c0-5.2 3.7-9.2 9.2-9.2 5.4 0 9.1 4 9.1 9.2 0 5.3-3.7 9.3-9.1 9.3-5.5 0-9.2-4-9.2-9.3zm13.6 0c0-3.4-1.6-5.7-4.4-5.7-2.9 0-4.5 2.3-4.5 5.7 0 3.5 1.6 5.8 4.5 5.8 2.8 0 4.4-2.3 4.4-5.8z"/>
	<path id="Layer" class="s0" d="m212.3 9c0-0.7 0.6-1.4 1.4-1.4h2.9c0.7 0 1.4 0.7 1.4 1.4 0 0.8-0.7 1.5-1.4 1.5h-2.9c-0.8 0-1.4-0.7-1.4-1.5z"/>
	<path id="Layer" fill-rule="evenodd" class="s0" d="m93.2 0c11.1 0 20 9 20 20 0 11-8.9 20-20 20-11 0-20-9-20-20 0-11 9-20 20-20zm-0.7 1.5c-2.3 0.3-4.4 2.2-6.1 5.2q-0.8 1.4-1.4 3c2.3-0.6 4.9-1 7.5-1zm-9.1 8.6q0.7-2.2 1.7-4.1c0.8-1.5 1.8-2.8 2.9-3.8-6 1.7-10.8 6.5-12.6 12.6 1-1.1 2.3-2.1 3.8-2.9q1.9-1.1 4.2-1.8zm-3.5 3c-3 1.7-4.9 3.9-5.2 6.2h7.2c0.1-2.7 0.4-5.2 1-7.5q-1.6 0.6-3 1.3zm6.6 6.2c2.7-1.1 4.9-3.3 6-6.1v-3.1c-2.9 0.1-5.6 0.5-8 1.2-0.7 2.4-1.1 5.1-1.1 8zm-4.6 1.4h-7.2c0.3 2.3 2.2 4.5 5.2 6.1q1.4 0.8 3 1.4c-0.6-2.3-1-4.8-1-7.5zm10.6 9.2v-3.2c-1.1-2.7-3.3-4.9-6-6h-3.2c0.1 2.9 0.5 5.6 1.2 8 2.4 0.7 5.1 1.1 8 1.2zm-9.2 0q-2.2-0.8-4.1-1.8c-1.5-0.8-2.8-1.8-3.8-2.9 1.8 6 6.5 10.8 12.6 12.6-1.1-1-2.1-2.3-2.9-3.8q-1-1.9-1.8-4.1zm9.2 1.4c-2.7 0-5.2-0.4-7.5-1q0.6 1.6 1.3 3c1.7 3 3.9 4.9 6.2 5.2zm18.5-6.1c-1 1.1-2.3 2.1-3.8 2.9q-1.9 1-4.1 1.7-0.7 2.3-1.8 4.1c-0.8 1.6-1.8 2.9-2.9 3.9 6.1-1.8 10.9-6.6 12.6-12.6zm-17.1 6.1v7.2c2.3-0.3 4.5-2.2 6.2-5.2q0.7-1.4 1.3-3c-2.3 0.6-4.8 0.9-7.5 1zm9.7-3.2q1.6-0.5 2.9-1.3c3.1-1.7 4.9-3.8 5.2-6.1h-7.2c0 2.6-0.4 5.2-0.9 7.4zm-3.6-7.4c-2.8 1.1-5 3.3-6.1 6v3.1c2.9 0 5.6-0.4 8-1.1 0.7-2.4 1.1-5.1 1.2-8zm4.5-1.5h7.2c-0.3-2.2-2.1-4.4-5.2-6.1q-1.3-0.7-2.9-1.3c0.6 2.3 0.9 4.8 0.9 7.4zm-10.6-9.1v3.1c1.1 2.8 3.3 5 6.1 6h3.1c-0.1-2.8-0.5-5.5-1.2-7.9-2.4-0.7-5.1-1.1-8-1.2zm9.2 0q2.3 0.7 4.1 1.7c1.5 0.9 2.8 1.9 3.8 3-1.7-6.1-6.5-10.9-12.6-12.6 1.1 1 2.1 2.3 3 3.8q1 1.8 1.7 4.1zm-9.2-1.4c2.7 0 5.2 0.3 7.5 0.9q-0.6-1.6-1.3-2.9c-1.7-3.1-3.9-4.9-6.2-5.2z"/>
</svg>